<svg xmlns="http://www.w3.org/2000/svg" viewBox="0 0 32 32">
  <defs>
    <linearGradient id="gradient" x1="0%" y1="0%" x2="100%" y2="100%">
      <stop offset="0%" style="stop-color:#2563eb;stop-opacity:1" />
      <stop offset="100%" style="stop-color:#1d4ed8;stop-opacity:1" />
    </linearGradient>
  </defs>
  
  <!-- Fondo circular -->
  <circle cx="16" cy="16" r="15" fill="url(#gradient)" stroke="#1e40af" stroke-width="2"/>
  
  <!-- Letra N -->
  <path d="M8 10 L8 22 L10 22 L10 15 L15 20 L17 20 L17 22 L19 22 L19 10 L17 10 L17 17 L12 12 L10 12 L10 10 Z" 
        fill="white" stroke="white" stroke-width="0.5"/>
  
  <!-- Letra G -->
  <path d="M21 12 C21 10.9 22.1 10 23.2 10 L24.8 10 C25.9 10 27 10.9 27 12 L27 13 L25 13 L25 12.5 C25 12.2 24.8 12 24.5 12 L23.5 12 C23.2 12 23 12.2 23 12.5 L23 19.5 C23 19.8 23.2 20 23.5 20 L24.5 20 C24.8 20 25 19.8 25 19.5 L25 17 L24 17 L24 15 L27 15 L27 20 C27 21.1 25.9 22 24.8 22 L23.2 22 C22.1 22 21 21.1 21 20 Z" 
        fill="white" stroke="white" stroke-width="0.3"/>
  
  <!-- Punto decorativo -->
  <circle cx="16" cy="26" r="1.5" fill="#fbbf24"/>
</svg>
